<?xml version="1.0" encoding="utf-8"?>
<!-- Generator: Adobe Illustrator 25.2.2, SVG Export Plug-In . SVG Version: 6.00 Build 0)  -->
<svg version="1.1" id="Layer_1" xmlns="http://www.w3.org/2000/svg" xmlns:xlink="http://www.w3.org/1999/xlink" x="0px" y="0px"
	 viewBox="0 0 306 379" style="enable-background:new 0 0 306 379;" xml:space="preserve">
<style type="text/css">
	.st0{fill:#ACACAD;}
	.st1{fill:#CC334D;}
	.st2{fill:#E5414D;}
	.st3{opacity:0.1;}
</style>
<g>
	<path class="st0" d="M71.9,26.6L72.1,40h-6l-0.2-8.3H47.5l-0.2,20.9h19.6v5.1H47.3l-0.2,20.6h7.2v5.1H34v-5.1h6.2l0.3-46.6H34v-5.1
		H71.9z"/>
	<path class="st0" d="M90.9,41.5l-0.3,36.8h6.7v5.1h-20v-5.1h6.7l0.3-31.6h-7.6v-5.1H90.9z M91.7,25.4c0,2.8-2.4,5-5,5
		c-2.8,0-5-2.2-5-5c0-2.7,2.2-5,5-5C89.4,20.4,91.7,22.7,91.7,25.4z"/>
	<path class="st0" d="M144.8,56.6c0,9.3-0.3,19-0.3,21.7h6.2v5.1h-18.2v-5.1h5.4c0.2-11.7,0.3-16.6,0.3-19.6
		c0-8.8-2.7-12.6-9.5-12.6c-7.7,0-12.3,5.5-12.3,14.2l-0.2,18h6.1v5.1H104v-5.1h5.4l0.3-31.6h-6.7v-5.1h13.4c0,4.5,0,4.1-0.9,9.2
		h0.2c1.8-6.1,8.1-10.2,14.8-10.2C139.8,40.6,144.8,45.6,144.8,56.6z"/>
	<path class="st0" d="M195.8,21l-0.3,57.3h6.2v5.1h-12.9c0-3.3,0.2-5.8,0.8-8.4l-0.2-0.2c-2.3,6.1-7.3,9.6-14,9.6
		c-10.3,0-17.4-7.7-17.4-20.2c0-14.4,8.4-23.6,22.2-23.6c3.2,0,7,0.6,8.7,1.9l0.2-16.3h-8.4V21H195.8z M176.9,78.9
		c8,0,12.2-6.1,12.2-17.2V48c-2.8-1.3-4.8-1.9-8.3-1.9c-9.8,0-15.7,6.6-15.7,18.2C165.1,73.1,169.6,78.9,176.9,78.9z"/>
	<path class="st0" d="M265.4,55.7c0,0.3-0.5,18.8-0.5,22.6h6v5.1h-12v-0.7c0-3.4,0.4-6.2,0.8-8.4h-0.2c-2.5,6.8-6.7,10.1-14,10.1
		c-8.2,0-13.1-4.3-13.1-12c0-8.8,6.6-12.8,24.9-12.8h1.6v-2.8c0-8-2.8-11-9.6-11c-3.2,0-6.7,0.6-9.3,1.7v6.5h-6V43.8
		c4.6-1.9,9.6-3.2,14.8-3.2C260.5,40.6,265.4,45.4,265.4,55.7z M247,79.3c7.1,0,12-5.1,12-15.1h-3.5c-15,0-16.4,4.3-16.4,8.1
		C239.2,76.4,242.4,79.3,247,79.3z"/>
	<path class="st0" d="M54.6,118.4l-0.3,57.3h6.2v5.1H47.6c0-3.3,0.2-5.8,0.8-8.4l-0.2-0.2c-2.3,6.1-7.3,9.6-14,9.6
		c-10.3,0-17.4-7.7-17.4-20.2c0-14.4,8.4-23.6,22.2-23.6c3.2,0,7,0.6,8.7,1.9l0.2-16.3h-8.4v-5.1H54.6z M35.6,176.2
		c8,0,12.2-6.1,12.2-17.2v-13.7c-2.8-1.3-4.8-1.9-8.3-1.9c-9.8,0-15.7,6.6-15.7,18.2C23.8,170.5,28.4,176.2,35.6,176.2z"/>
	<path class="st0" d="M104.9,160.2v0.2H74.4c0.4,10.8,5.9,15.8,15.9,15.8c4.5,0,9-1.3,12.6-3.2l-0.2,5.8c-2.4,1.3-9.4,2.9-13.8,2.9
		c-13.6,0-21.4-7.6-21.4-21.8c0-13.2,7.5-22,19.4-22C98.5,137.9,104.9,145.6,104.9,160.2z M97.9,155.3c-0.1-7.2-4.6-12.3-11.2-12.3
		c-6.5,0-11.8,4.9-12.3,12.3H97.9z"/>
	<path class="st0" d="M153.9,154c0,9.3-0.3,19-0.3,21.7h6.2v5.1h-18.2v-5.1h5.4c0.2-11.7,0.3-16.6,0.3-19.6c0-8.8-2.7-12.6-9.5-12.6
		c-7.7,0-12.3,5.5-12.3,14.2l-0.2,18h6.1v5.1h-18.2v-5.1h5.4l0.3-31.6H112v-5.1h13.4c0,4.5,0,4.1-0.9,9.3h0.2
		c1.8-6.1,8.1-10.2,14.8-10.2C148.9,137.9,153.9,143,153.9,154z"/>
	<path class="st0" d="M179.3,138.9h13.1v5.1h-13.2l-0.2,10.2c-0.2,6.8-0.1,9.9-0.1,12.4c0,4.3,0.4,9.6,6,9.6c3.7,0,6.5-0.9,8.7-1.7
		l-0.2,5.3c-2.3,1.1-6.2,1.9-9.4,1.9c-5.2,0-11.7-1.2-11.7-12.3c0-6.6,0.3-20.7,0.3-25.5h-6.7v-5.1h6.7l0.3-10.2l6.7-0.4
		L179.3,138.9z"/>
	<path class="st0" d="M211.1,138.9l-0.3,36.8h6.7v5.1h-20v-5.1h6.7l0.3-31.6h-7.6v-5.1H211.1z M212,122.8c0,2.8-2.4,5-5,5
		c-2.8,0-5-2.2-5-5c0-2.7,2.2-5,5-5C209.6,117.7,212,120.1,212,122.8z"/>
	<path class="st0" d="M253.8,140.4l0.3,10.1h-6l-0.3-5.9c-1.5-1.1-4.5-1.5-7.4-1.5c-5.6,0-9.7,2.2-9.7,6.4c0,3.9,2.7,5.7,10.1,7
		c11.3,1.9,15.3,5.1,15.3,11.9c0,8.5-6.3,13.4-17.1,13.4c-5.5,0-12.5-1.5-14.4-2.5l-0.3-10.7h6l0.3,6.2c2.4,1.2,6.3,1.9,9.5,1.9
		c5.5,0,9.7-2.7,9.7-7c0-3.2-2.4-5.3-8.9-6.6c-13.7-2.8-16.7-5.9-16.7-12.6c0-7.9,5.9-12.6,16.4-12.6
		C243.9,137.9,250.7,139.1,253.8,140.4z"/>
	<path class="st0" d="M276.9,138.9H290v5.1h-13.2l-0.2,10.2c-0.2,6.8-0.1,9.9-0.1,12.4c0,4.3,0.4,9.6,6,9.6c3.7,0,6.5-0.9,8.7-1.7
		l-0.2,5.3c-2.3,1.1-6.2,1.9-9.4,1.9c-5.2,0-11.7-1.2-11.7-12.3c0-6.6,0.3-20.7,0.3-25.5h-6.7v-5.1h6.7l0.3-10.2l6.7-0.4
		L276.9,138.9z"/>
</g>
<g>
	<path class="st1" d="M158.1,210.7V235c14.8,0,26.8,12,26.8,26.8c0,14.8-12,26.8-26.8,26.8v59l40.4-54.6
		c6.7-8.6,10.6-19.4,10.6-31.2C209.2,233.6,186.3,210.7,158.1,210.7z"/>
	<path class="st2" d="M131.3,261.8c0-14.8,12-26.8,26.8-26.8v-24.2c-28.2,0-51,22.9-51,51c0,11.7,4,22.6,10.6,31.2l40.4,54.6v-59
		C143.3,288.6,131.3,276.6,131.3,261.8z"/>
	<ellipse class="st3" cx="158.1" cy="360.9" rx="28.8" ry="3.1"/>
</g>
</svg>
